<svg xmlns="http://www.w3.org/2000/svg" viewBox="0 0 512 512" style="enable-background:new 0 0 512 512" xml:space="preserve"><circle style="fill:#ccc" cx="255.936" cy="255.998" r="243.449"/><path style="fill:#e6e6e6" d="M255.941 468.079C139 468.079 43.862 372.94 43.862 256.001S139 43.921 255.941 43.921s212.078 95.138 212.078 212.078-95.138 212.08-212.078 212.08z"/><path style="fill:#f95428" d="m381.297 130.643-112.818 309.57-54.002-142.749-142.749-54.002z"/><path style="fill:#e54728" d="m214.477 297.464 166.82-166.821-112.818 309.57z"/><path style="fill:#333" d="M268.479 452.762a12.55 12.55 0 0 1-11.738-8.109l-51.998-137.455-137.455-51.999a12.55 12.55 0 0 1 .143-23.527l309.57-112.82a12.547 12.547 0 0 1 16.086 16.086l-112.819 309.57a12.549 12.549 0 0 1-11.714 8.252c-.025.002-.052.002-.075.002zM107.775 243.681l111.142 42.044a12.548 12.548 0 0 1 7.297 7.297l42.045 111.142 92.024-252.508-252.508 92.025z"/><path style="fill:#333" d="M255.94 512c-68.38 0-132.667-26.629-181.02-74.98-99.814-99.815-99.814-262.224 0-362.039C123.272 26.629 187.561 0 255.94 0s132.667 26.629 181.02 74.981 74.981 112.639 74.981 181.02-26.629 132.667-74.981 181.02l-8.873-8.873 8.873 8.873C388.607 485.371 324.32 512 255.94 512zm0-486.902c-61.675 0-119.66 24.017-163.272 67.63-90.029 90.029-90.029 236.516 0 326.544 43.611 43.613 101.596 67.63 163.272 67.63 61.677 0 119.662-24.017 163.273-67.63 43.613-43.611 67.631-101.596 67.631-163.272s-24.019-119.66-67.631-163.273C375.601 49.115 317.616 25.098 255.94 25.098z"/></svg>